<?xml version="1.0" encoding="utf-8"?>
<!-- Generator: Adobe Illustrator 22.0.1, SVG Export Plug-In . SVG Version: 6.00 Build 0)  -->
<svg version="1.1" xmlns="http://www.w3.org/2000/svg" xmlns:xlink="http://www.w3.org/1999/xlink" x="0px" y="0px"
	 viewBox="0 0 933.7 465.4" style="enable-background:new 0 0 933.7 465.4;" xml:space="preserve">
<style type="text/css">
	.st0{fill:none;stroke:#141414;stroke-miterlimit:10;}
	.st1{fill:#141414;}
</style>
<g id="diamonds">
	<polygon class="st0" points="700.2,172.2 583.5,230.5 700.2,288.9 816.9,230.5 	"/>
	<polygon class="st0" points="466.8,55.5 350.1,113.8 466.8,172.2 583.5,113.8 	"/>
	<polygon class="st0" points="583.5,113.8 466.8,172.2 583.5,230.5 700.2,172.2 	"/>
	<polygon class="st0" points="350.1,113.8 233.4,172.2 350.1,230.5 466.8,172.2 	"/>
	<polygon class="st0" points="466.8,172.2 350.1,230.5 466.8,288.9 583.5,230.5 	"/>
	<polygon class="st0" points="583.5,230.5 466.8,288.9 583.5,347.2 700.2,288.9 	"/>
	<polygon class="st0" points="233.4,172.2 116.7,230.5 233.4,288.9 350.1,230.5 	"/>
	<polygon class="st0" points="350.1,230.5 233.4,288.9 350.1,347.2 466.8,288.9 	"/>
	<polygon class="st0" points="466.8,288.9 350.1,347.2 466.8,405.6 583.5,347.2 	"/>
</g>
<g id="text">
	<g>
		<g>
			<path class="st1" d="M256.2,213.9c0,4.9-2.9,9.5-10.2,11.2c7.2,1,11.2,5.6,11.2,12.5c0,7.2-4.6,15.4-18.4,15.4h-21.8v-53.3h21.4
				C252.5,199.7,256.2,207.6,256.2,213.9z M231.6,221.3h3.8c4.9,0,5.8-3.2,5.8-5.9c0-2.7-1-5.6-5.8-5.6h-3.8V221.3z M231.6,242.9
				h4.5c4.5,0,6.2-3.3,6.2-6.5c0-3.6-2-6.3-6.2-6.3h-4.5V242.9z"/>
		</g>
		<g>
			<path class="st1" d="M328.5,301.4l11.8-6.4c2.4,5.3,6,7.4,11.3,7.4c2.6,0,5.8-1.4,5.8-4.4c0-2.9-1.4-4.1-5.6-5.3l-7.1-2
				c-8.7-2.5-13.8-7.4-13.8-15.2c0-11,8.6-17.2,20.4-17.2c9.4,0,16.1,3.9,20.3,9.2l-10.3,8.9c-3.8-5-7.4-6.6-10.7-6.6
				c-3.7,0-5.4,1.6-5.4,3.7c0,2.3,1.5,3.8,5.6,5l7.5,2.2c8.2,2.4,13.7,6.6,13.7,15.6c0,10.1-8.7,17.9-21.5,17.9
				C342.6,314.3,333.3,311.5,328.5,301.4z"/>
		</g>
		<g>
			<path class="st1" d="M473,358.7h-12.2l-2,9.4h-14.1l13.6-53.3h17.1l13.6,53.3h-14.1L473,358.7z M470.7,348.1v-0.1
				c-1.9-9.1-2.9-14.9-3.5-21.9h-0.5c-0.7,7.1-1.6,12.8-3.5,21.9v0.1H470.7z"/>
		</g>
		<g>
			<path class="st1" d="M589.6,303.6h-12.2l-1.9,9.4h-14.1l13.6-53.3h17.1l13.6,53.3h-14.1L589.6,303.6z M587.3,293v-0.1
				c-1.9-9.1-2.8-14.9-3.5-21.9h-0.5c-0.7,7.1-1.6,12.8-3.5,21.9v0.1H587.3z"/>
		</g>
		<g>
			<path class="st1" d="M708.4,232.8h0.7c-0.7-2.9-1-8-1-10.9v-22.2h12.4V253h-14l-10.4-24.7c-1.1-2.5-1.7-6.1-2.3-8.5h-0.7
				c0.7,2.5,1,6.8,1,9.7V253h-12.4v-53.3h14.6L706,224C706.9,226.5,708,230.3,708.4,232.8z"/>
		</g>
		<g>
			<path class="st1" d="M463.6,253h-14.5v-53.3h20.9c14.2,0,19.1,9.2,19.1,16.7c0,8.2-4.9,17.5-19.1,17.5h-6.4V253z M466.3,224.2
				c5.8,0,7.7-3.2,7.7-7.1c0-4.2-2-7.2-7.7-7.2h-2.8v14.3H466.3z"/>
		</g>
		<g>
			<path class="st1" d="M604.4,144.8v12h-13.1V198h-14.5v-41.3h-13.1v-12H604.4z"/>
		</g>
		<g>
			<path class="st1" d="M366.4,156h-19.8v9.3h18.5v11h-18.5v10.4h20.3V198h-34.8v-53.3h34.3V156z"/>
		</g>
		<g>
			<path class="st1" d="M466.4,115.9h-4.2v20.9h-14.5V83.5h20.7c12.2,0,19.3,6.2,19.3,16.8c0,5.7-2.8,10.1-7.7,12.8l9.4,23.7h-15.6
				L466.4,115.9z M462.2,106.8h4.1c4.2,0,6.4-2.3,6.4-6.5c0-4.4-2.2-6.7-6.4-6.7h-4.1V106.8z"/>
		</g>
	</g>
</g>
</svg>
