<?xml version="1.0" encoding="utf-8"?>
<!-- Generator: Adobe Illustrator 13.0.1, SVG Export Plug-In . SVG Version: 6.00 Build 14948)  -->
<!DOCTYPE svg PUBLIC "-//W3C//DTD SVG 1.1//EN" "http://www.w3.org/Graphics/SVG/1.1/DTD/svg11.dtd">
<svg version="1.1" xmlns="http://www.w3.org/2000/svg" xmlns:xlink="http://www.w3.org/1999/xlink" x="0px" y="0px" width="236.9px"
	 height="524.1px" viewBox="0 0 236.9 524.1" enable-background="new 0 0 236.9 524.1" xml:space="preserve">
<g id="Background">
</g>
<g id="Rivers">
	
		<polyline fill-rule="evenodd" clip-rule="evenodd" fill="none" stroke="#61BAE9" stroke-linejoin="round" stroke-miterlimit="3.8637" points="
		234.159,523.661 233.328,523.206 232.782,523.099 232.636,522.764 232.814,522.231 236.239,516.322 236.4,515.222 236.063,513.136 
		233.045,508.105 232.982,502.206 232.729,501.041 232.07,500.254 229.411,499.786 228.171,499.2 222.978,493.398 219.258,491.203 
		217.186,490.667 216.164,490.689 214.386,491.108 213.868,490.848 212.368,488.094 211.604,487.591 208.973,487.101 
		205.395,484.811 195.801,473.521 194.805,470.076 194.926,466.683 197.399,460.361 200.871,455.874 201.317,454.82 
		201.411,453.688 200.678,451.036 200.677,449.613 201.411,446.928 202.98,444.121 197.006,439.21 190.33,436.743 189.629,436.773 
		188.983,437.055 184.711,441.652 183.876,441.956 183.046,441.896 182.24,441.387 174.896,419.465 173.567,418.277 
		166.641,414.194 149.402,398.427 148.285,395.974 147.385,389.485 144.47,382.059 143.249,371.247 145.744,365.509 
		147.766,363.021 148.354,361.882 148.71,360.662 148.702,359.423 147.59,357.126 147.335,356.113 147.397,355.192 147.739,354.361 
		148.327,353.625 150.089,352.429 152.338,351.469 154.505,349.879 156.296,347.521 158.248,340.667 162.948,333.571 
		163.515,331.688 163.329,329.672 157.951,319.4 157.101,314.143 157.486,312.077 158.515,310.614 160.259,309.934 168.512,308.496 
		171.705,307.258 172.855,306.471 174.239,304.784 174.932,304.355 175.675,304.195 178.674,304.524 179.301,304.426 
		179.854,304.109 183.146,300.177 183.866,299.688 184.498,299 186.189,291.433 186.849,290.143 188.88,288.161 190.28,283.593 
		190.345,277.566 189.74,274.632 188.631,272.081 180.998,264.182 179.066,260.036 178.404,259.419 174.569,258.244 
		172.251,256.985 171.362,256.121 170.961,255.399 170.904,254.783 171.312,253.147 171.153,252.542 170.057,251.055 
		169.861,250.231 169.841,248.558 169.664,247.753 169.143,246.995 168.1,246.309 157.139,242.718 154.966,241.151 148.453,221.139 
		150.992,213.543 151.1,212.454 150.947,211.54 150.496,210.823 147.378,209.322 146.395,208.556 145.743,207.494 140.066,180.454 
		138.259,177.538 137.076,176.536 135.653,175.945 128.779,174.709 125.425,173.146 123.931,171.805 117.704,163.249 
		110.28,156.397 105.628,153.921 100.216,149.066 93.782,148.181 92.763,147.75 84.006,140.072 79.669,138.828 77.903,137.788 
		73.433,132.685 72.837,132.269 72.249,132.022 71.637,131.928 69.543,132.232 68.946,132.145 68.436,131.863 67.534,130.715 
		63.793,121.177 63.063,120.108 62.059,119.154 52.079,113.45 49.337,113.16 35.444,105.969 33.189,103.576 31.427,99.985 
		29.854,92.492 29.131,90.822 26.195,88.047 24.909,85.618 23.853,79.907 24.831,72.823 24.767,71.661 24.398,70.505 22.945,68.251 
		22.783,67.214 23.045,66.232 32.498,55.285 33.964,52.456 34.333,49.06 34.586,48.494 34.958,48.152 35.454,47.977 38.657,47.806 
		42.652,46.511 43.507,46.518 46.208,47.248 46.991,47.245 47.729,47.019 48.438,46.527 51.54,41.508 58.395,37.216 59.095,36.104 
		59.328,30.755 62.051,25.229 62.148,24.384 61.984,23.714 61.594,23.181 57.613,21.092 54.052,14.858 52.774,13.78 51.074,13.027 
		47.814,12.658 43.406,13.893 42.812,13.691 42.418,13.224 42.332,12.617 42.651,10.596 42.53,10.063 42.085,9.706 38.268,9.366 
		36.796,8.805 35.535,7.804 32.282,3.019 30.456,2.018 29.637,1.805 28.773,1.773 27.912,2.008 27.106,2.593 25.27,4.825 
		24.911,5.048 24.458,5.115 19.692,3.503 18.26,3.367 14.202,4.723 12.473,4.844 11.714,4.704 11.071,4.402 9.002,1.88 7.63,0.766 
		6.887,0.5 6.126,0.525 5.36,0.915 4.734,1.771 3.466,9.019 3.057,9.926 1.741,10.534 1.242,11.216 0.497,18.065 	"/>
</g>
<g id="Borders">
</g>
<g id="Layer_7">
</g>
<g id="Lakes">
</g>
<g id="WaterStations">
</g>
<g id="Cities">
</g>
</svg>
